<!-- Generator: Adobe Illustrator 21.0.2, SVG Export Plug-In  -->
<svg version="1.1"
    xmlns="http://www.w3.org/2000/svg" xmlns:xlink="http://www.w3.org/1999/xlink" xmlns:a="http://ns.adobe.com/AdobeSVGViewerExtensions/3.0/"
    x="0px" y="0px" width="176.9px" height="49.6px" viewBox="0 0 176.9 49.6" enable-background="new 0 0 176.9 49.6"
    xml:space="preserve">
<defs>
</defs>
<polygon points="0,0 0,49.6 49.6,49.6 24.8,24.8 49.6,0 "/>
<polygon fill="#585857" points="24.8,24.8 0,0 49.6,0 "/>
<polygon fill="#3F3E3E" points="24.8,24.8 0,0 0,49.6 "/>
<path fill="#676767" d="M49.6,49.6"/>
<g>
    <g>
        <path fill="#C5C5C5" d="M57.6,25v-0.3c0-6.4,4.4-10.7,10.3-10.7c5.2,0,9.8,3.1,9.8,10.5v1.4H62.6c0.2,3.9,2.1,6.2,5.7,6.2
            c2.9,0,4.4-1.2,4.8-3.2h4.6c-0.7,4.4-4.2,6.8-9.5,6.8C62.1,35.5,57.6,31.5,57.6,25z M73,22.6c-0.2-3.6-2.1-5.2-5-5.2
            c-2.9,0-4.8,1.9-5.3,5.2H73z"/>
        <path fill="#C5C5C5" d="M80.6,14.4h4.8v3.3c1-2,3.3-3.7,6.7-3.7c4.2,0,7.1,2.4,7.1,8.1v13.1h-4.8V22.5c0-3.1-1.3-4.6-4.1-4.6
            c-2.7,0-4.9,1.7-4.9,5v12.2h-4.8V14.4z"/>
        <path fill="#C5C5C5" d="M102,35.9h4.8c0.4,2.1,2,3.3,5.1,3.3c3.7,0,5.8-1.9,5.8-5.6v-3.1c-1.2,2-3.7,3.9-6.8,3.9
            c-5.2,0-9.2-3.9-9.2-9.9v-0.3c0-5.8,4-10.2,9.3-10.2c3.4,0,5.5,1.5,6.7,3.6v-3.2h4.8v19.2c0,6.1-4.1,9.2-10.6,9.2
            C105.5,42.8,102.6,39.8,102,35.9z M118,24.3V24c0-3.9-2.1-6.3-5.6-6.3c-3.6,0-5.6,2.6-5.6,6.4v0.3c0,3.9,2.4,6.2,5.5,6.2
            C115.5,30.6,118,28.2,118,24.3z"/>
        <path fill="#C5C5C5" d="M126.1,8.2c0-1.6,1.3-2.8,2.9-2.8s2.9,1.2,2.9,2.8c0,1.5-1.3,2.7-2.9,2.7S126.1,9.8,126.1,8.2z
             M126.6,14.4h4.8v20.8h-4.8V14.4z"/>
        <path fill="#C5C5C5" d="M135.4,14.4h4.8v3.3c1-2,3.3-3.7,6.7-3.7c4.2,0,7.1,2.4,7.1,8.1v13.1h-4.8V22.5c0-3.1-1.3-4.6-4.1-4.6
            c-2.7,0-4.9,1.7-4.9,5v12.2h-4.8V14.4z"/>
        <path fill="#C5C5C5" d="M156.8,25v-0.3c0-6.4,4.4-10.7,10.3-10.7c5.2,0,9.8,3.1,9.8,10.5v1.4h-15.2c0.2,3.9,2.1,6.2,5.7,6.2
            c2.9,0,4.4-1.2,4.8-3.2h4.6c-0.7,4.4-4.2,6.8-9.5,6.8C161.2,35.5,156.8,31.5,156.8,25z M172.2,22.6c-0.2-3.6-2.1-5.2-5-5.2
            c-2.9,0-4.8,1.9-5.3,5.2H172.2z"/>
    </g>
</g>
</svg>
