# 3ds Max Wavefront OBJ Exporter v0.97b - (c)2007 guruware
# File Created: 17.07.2014 14:31:16

mtllib building.mtl

#
# object Building
#

v  48.6175 477.8925 -47.4346
v  -48.6175 477.8925 -47.4346
v  -48.6175 477.8925 47.4346
v  48.6175 477.8925 47.4346
v  -48.6175 -0.2317 47.4346
v  48.6175 -0.2317 47.4346
v  48.6175 -0.2317 -47.4346
v  -48.6175 -0.2317 -47.4346
# 8 vertices

vn 0.0000 1.0000 -0.0000
vn 0.0000 0.0000 1.0000
vn 1.0000 0.0000 -0.0000
vn 0.0000 0.0000 -1.0000
vn -1.0000 0.0000 -0.0000
# 5 vertex normals

vt 0.8370 0.0890 0.0000
vt 0.8487 0.0890 0.0000
vt 0.8487 0.1005 0.0000
vt 0.8370 0.1005 0.0000
vt 0.4022 0.9980 0.0000
vt 0.1996 0.9980 0.0000
vt 0.1996 0.0020 0.0000
vt 0.4022 0.0020 0.0000
vt 0.5998 0.9980 0.0000
vt 0.5998 0.0020 0.0000
vt 0.8024 0.9980 0.0000
vt 0.8024 0.0020 0.0000
vt 0.0020 0.9980 0.0000
vt 0.0020 0.0020 0.0000
# 14 texture coords

g building
usemtl building_mat
s 4
f 1/1/1 2/2/1 3/3/1
f 3/3/1 4/4/1 1/1/1
s 8
f 4/5/2 3/6/2 5/7/2
f 5/7/2 6/8/2 4/5/2
s 16
f 1/9/3 4/5/3 6/8/3
f 6/8/3 7/10/3 1/9/3
s 32
f 2/11/4 1/9/4 7/10/4
f 7/10/4 8/12/4 2/11/4
s 64
f 3/6/5 2/13/5 8/14/5
f 8/14/5 5/7/5 3/6/5
# 10 faces
